<svg xmlns="http://www.w3.org/2000/svg" width="1200" height="520" viewBox="0 0 1200 520">
  <defs>
    <linearGradient id="bg" x1="0" x2="1" y1="0" y2="1"><stop stop-color="#07111f"/><stop offset=".55" stop-color="#0b2a59"/><stop offset="1" stop-color="#111827"/></linearGradient>
    <linearGradient id="glow" x1="0" x2="1"><stop stop-color="#2563eb"/><stop offset="1" stop-color="#facc15"/></linearGradient>
    <filter id="blur"><feGaussianBlur stdDeviation="22"/></filter>
  </defs>
  <rect width="1200" height="520" fill="url(#bg)"/>
  <circle cx="980" cy="80" r="150" fill="#2563eb" opacity=".28" filter="url(#blur)"/>
  <circle cx="760" cy="410" r="120" fill="#facc15" opacity=".2" filter="url(#blur)"/>
  <g transform="translate(685 90)">
    <rect x="0" y="0" width="270" height="340" rx="18" fill="#0f172a" stroke="#60a5fa" stroke-width="5"/>
    <rect x="28" y="36" width="214" height="268" rx="12" fill="#030712"/>
    <circle cx="135" cy="170" r="72" fill="none" stroke="url(#glow)" stroke-width="18"/>
    <circle cx="135" cy="170" r="34" fill="#1d4ed8"/>
    <rect x="290" y="54" width="180" height="116" rx="16" fill="#111827" stroke="#facc15" stroke-width="4"/>
    <rect x="315" y="84" width="130" height="14" rx="7" fill="#60a5fa"/>
    <rect x="315" y="116" width="94" height="14" rx="7" fill="#facc15"/>
    <rect x="-70" y="372" width="560" height="24" rx="12" fill="#1e293b"/>
  </g>
  <text x="70" y="138" fill="#f8fafc" font-family="Arial, sans-serif" font-size="60" font-weight="900">Build Your Dream PC</text>
  <text x="72" y="194" fill="#bfdbfe" font-family="Arial, sans-serif" font-size="24" font-weight="700">Premium gaming hardware, builder-ready compatibility, Tk 10 demo deals.</text>
  <rect x="72" y="242" width="166" height="54" rx="10" fill="#2563eb"/>
  <text x="112" y="276" fill="#fff" font-family="Arial, sans-serif" font-size="18" font-weight="800">Build Your PC</text>
  <rect x="258" y="242" width="138" height="54" rx="10" fill="none" stroke="#facc15" stroke-width="3"/>
  <text x="292" y="276" fill="#facc15" font-family="Arial, sans-serif" font-size="18" font-weight="800">Shop Now</text>
</svg>
